<?xml version="1.0" encoding="UTF-8" standalone="no"?>
<!DOCTYPE svg PUBLIC "-//W3C//DTD SVG 1.1//EN" "http://www.w3.org/Graphics/SVG/1.1/DTD/svg11.dtd">
<svg width="100%" height="100%" viewBox="0 0 80 69" version="1.1" xmlns="http://www.w3.org/2000/svg" xmlns:xlink="http://www.w3.org/1999/xlink" xml:space="preserve" xmlns:serif="http://www.serif.com/" style="fill-rule:evenodd;clip-rule:evenodd;stroke-linejoin:round;stroke-miterlimit:2;">
    <g id="BSC_Logo_2_">
        <g>
            <path d="M44.56,4.65C47.3,4.65 53.07,5.9 55.2,6.5C33.37,5.45 19.62,20.24 19.62,37.24C19.62,49.34 26.85,62.69 44.23,66.69C24.07,67.05 12.3,50.42 12.3,35.91C12.3,17.54 28.06,4.65 44.56,4.65Z" style="fill:rgb(33,57,112);fill-rule:nonzero;"/>
            <path d="M32.92,0C36.49,0 41.11,1.17 44.39,2.16C43.03,1.99 40.74,2 39.91,2C19.75,2 7.65,19.7 7.65,36.08C7.65,50.17 15.46,65.1 34.25,69.35C11.98,69.92 0,50.42 0,34.58C0,16.17 14.63,0 32.92,0Z" style="fill:rgb(33,57,112);fill-rule:nonzero;"/>
            <path d="M40.01,37.01L38.05,37.01L37.6,39.16L39.88,39.16C40.51,39.16 41.38,38.93 41.38,38C41.38,37.14 40.75,37.01 40.01,37.01Z" style="fill:rgb(33,57,112);fill-rule:nonzero;"/>
            <path d="M51.81,9.07C36.62,9.07 24.31,21.38 24.31,36.57C24.31,51.76 36.62,64.07 51.81,64.07C67,64.07 79.31,51.76 79.31,36.57C79.31,21.38 66.99,9.07 51.81,9.07ZM44.93,38.03C44.93,40.81 42.7,41.91 40.18,41.91L33.56,41.91L35.95,30.37L41.88,30.37C44.38,30.37 45.32,31.24 45.32,32.91C45.32,34.37 44.59,35.32 43.2,35.69L43.18,35.69L43.18,35.72C44.26,35.95 44.93,36.96 44.93,38.03ZM53.87,34.91C55.87,35.62 56.55,36.72 56.55,38.1C56.55,40.88 53.85,42.18 51.35,42.18C48.7,42.18 46.31,40.97 46.45,38.03L49.89,38.03C49.89,38.66 50.04,39.05 50.33,39.34C50.64,39.6 51.06,39.63 51.64,39.63C52.33,39.63 53.19,39.28 53.19,38.52C53.19,37.68 52.01,37.56 50.41,37.03C49,36.56 47.64,35.82 47.64,33.9C47.64,31.3 50.16,30.1 52.49,30.1C54.95,30.1 57.16,31.02 57.09,33.87L53.81,33.87C53.83,33.4 53.67,33.11 53.41,32.91C53.15,32.72 52.78,32.65 52.37,32.65C51.77,32.65 51,32.83 51,33.59C51.01,34.46 52.74,34.51 53.87,34.91ZM64.11,39.31C65.22,39.31 65.85,38.55 66.08,37.53L69.57,37.53C69.36,38.71 68.46,42.18 63.66,42.18C60.31,42.18 58.7,40.02 58.7,36.93C58.7,33.2 61.03,30.09 64.95,30.09C67.52,30.09 69.81,31.21 69.88,34.67L66.52,34.67C66.55,33.59 66.03,32.97 64.94,32.97C62.97,32.97 62.26,35.23 62.26,36.86C62.25,37.82 62.48,39.31 64.11,39.31Z" style="fill:rgb(33,57,112);fill-rule:nonzero;"/>
            <path d="M40.67,33.12L38.84,33.12L38.49,34.87L40.49,34.87C41.06,34.87 41.77,34.66 41.77,33.95C41.77,33.25 41.3,33.12 40.67,33.12Z" style="fill:rgb(33,57,112);fill-rule:nonzero;"/>
        </g>
    </g>
</svg>
